<?xml version="1.0" encoding="UTF-8"?>
<svg width="512" height="512" viewBox="0 0 512 512" xmlns="http://www.w3.org/2000/svg">
  <!-- 茚三酮检测 App 图标 -->
  
  <!-- 圆形背景 -->
  <circle cx="256" cy="256" r="240" fill="#8B2E9B"/>
  
  <!-- 渐变效果 -->
  <defs>
    <radialGradient id="grad1" cx="50%" cy="50%" r="50%">
      <stop offset="0%" style="stop-color:#A855B8;stop-opacity:1" />
      <stop offset="100%" style="stop-color:#6B1E7B;stop-opacity:1" />
    </radialGradient>
  </defs>
  
  <circle cx="256" cy="256" r="240" fill="url(#grad1)"/>
  
  <!-- 试管/烧瓶形状 -->
  <path d="M 220 180 L 220 140 A 36 36 0 0 1 292 140 L 292 180 L 340 380 A 36 36 0 0 1 272 420 L 240 420 A 36 36 0 0 1 172 380 Z" 
        fill="#FFFFFF" opacity="0.9"/>
  
  <!-- 液体 -->
  <path d="M 228 220 L 228 360 A 28 28 0 0 0 284 360 L 284 220 Z" 
        fill="#D455D4" opacity="0.8"/>
  
  <!-- 气泡 -->
  <circle cx="240" cy="200" r="8" fill="#FFFFFF" opacity="0.6"/>
  <circle cx="260" cy="190" r="6" fill="#FFFFFF" opacity="0.5"/>
  <circle cx="250" cy="185" r="5" fill="#FFFFFF" opacity="0.4"/>
  
  <!-- 文字 "N" -->
  <text x="256" y="320" font-family="Arial, sans-serif" font-size="80" font-weight="bold" 
        fill="#FFFFFF" text-anchor="middle" opacity="0.3">N</text>
</svg>
